PathFileType	4	(X/Y/Z)	path1_17_0-570.trc
DataRate	CameraRate	NumFrames	NumMarkers	Units	OrigDataRate	OrigDataStartFrame	OrigNumFrames
30	30	7	22	m	30	356	570
Frame#	Time	Hip			RHip			RKnee			RAnkle			RBigToe			RSmallToe			RHeel			LHip			LKnee			LAnkle			LBigToe			LSmallToe			LHeel			Neck			Head			Nose			RShoulder			RElbow			RWrist			LShoulder			LElbow			LWrist		
		X1	Y1	Z1	X2	Y2	Z2	X3	Y3	Z3	X4	Y4	Z4	X5	Y5	Z5	X6	Y6	Z6	X7	Y7	Z7	X8	Y8	Z8	X9	Y9	Z9	X10	Y10	Z10	X11	Y11	Z11	X12	Y12	Z12	X13	Y13	Z13	X14	Y14	Z14	X15	Y15	Z15	X16	Y16	Z16	X17	Y17	Z17	X18	Y18	Z18	X19	Y19	Z19	X20	Y20	Z20	X21	Y21	Z21	X22	Y22	Z22
357	11.9	2.4108454789921265	0.8260558522678015	0.6561203417526894	2.4111828576456764	0.8187566948077741	0.569654536503723	2.2362689441705026	0.5246254468665751	0.5796519878818502	2.2817771815214964	0.14619047356630993	0.5686816774479875	2.1066953368164554	0.06232849914410523	0.5638859216816672	2.155876866502424	0.053762075189667184	0.5033933700230945	2.3399982284473073	0.06740375934261135	0.582979164174434	2.402416921870928	0.805971146367695	0.737619029620139	2.455222488326874	0.4415655762696583	0.7362605917421549	2.547058478781712	0.10572647381082578	0.6981739040511998	2.3832298984412454	0.022008633907681232	0.7023460116170072	2.4175254813495495	0.01921229530768918	0.7506154033047973	2.596050959349841	0.04351028087345135	0.6897594633982098	2.34738639783921	1.4441541435520624	0.6861544237669351	2.288981905903219	1.7181135218886414	0.6485097063823342	2.210560857706323	1.5801430279810202	0.6712502138537346	2.427654497286447	1.3608373813370416	0.5187528155765448	2.497694346387096	1.0880104731378761	0.48485109863463816	2.506374820382458	0.8439483664153467	0.4655487308694136	2.342461980170268	1.3314632570873834	0.8671679850214913	2.308167011487642	1.043387695647825	0.87410019052723	2.191192082109244	0.8421940845279673	0.8968511681582884
358	11.933333333333334	2.395386186461138	0.8248608099966971	0.6553572687677108	2.396103054437008	0.8183962509220362	0.5691291198299891	2.220782304265625	0.5264300750252171	0.5817716142913587	2.23513333726883	0.14354380388657242	0.5707021495669846	2.0543965975231084	0.06830208567664256	0.5652361358745612	2.104158153107334	0.058814133058834886	0.5048622257672546	2.2858594160160135	0.06368573207733888	0.5857570234354721	2.387969368921997	0.8047392381151042	0.7373274070486094	2.4458020551943513	0.438590692697403	0.7320271457191933	2.5441899080636836	0.1088357685168247	0.698899324634446	2.380076170931954	0.02448332065796569	0.6987380601532855	2.415064343789052	0.018565334539500794	0.7471025846366073	2.5956788170675225	0.045138272965546705	0.6896494017532251	2.3292830034779985	1.4404396162873212	0.6870108648125187	2.26992596879165	1.7122589698839314	0.6545583966587508	2.1929886500282234	1.5765379620768838	0.6732263733194528	2.4116455249952873	1.359867807484642	0.5196507047414867	2.487232852447382	1.0897432291592957	0.485764147394838	2.502779351893877	0.8452717009570907	0.4666995481641512	2.321838799371882	1.3286974646206948	0.8656078740161272	2.286841282689503	1.0444318011460096	0.8759951451159099	2.1564183594121813	0.8476093143679789	0.8925595157919726
359	11.966666666666669	2.3798883471144103	0.8232468138842387	0.6544149618080852	2.3810177266695214	0.8170813605644337	0.5682487342559639	2.207363017630366	0.5254943074397933	0.5831783728479649	2.191762469230094	0.14078041167718852	0.5726247373856994	2.0053740471192394	0.07307613840189432	0.5665452693148199	2.0558108814052853	0.06346152262380558	0.5065561439397919	2.2346110510163233	0.05875098218001817	0.5892253377366985	2.3730267689145483	0.8027848238433287	0.7370841292140035	2.436676184571389	0.4351211996204258	0.7281075053705592	2.5421870458885123	0.11095314622234807	0.6979415065102162	2.377112584537519	0.025452371382837617	0.6945720763091487	2.4134254983759282	0.017243581411486474	0.7425125414652469	2.5957760711673026	0.045205869433948026	0.6879293895717828	2.3111236526565655	1.4373733944979474	0.687535745804345	2.2494630949979384	1.7033786750055167	0.6602326566912285	2.1752489841864984	1.5726469355866821	0.6745058165419144	2.3949716896988034	1.3586450418494358	0.5198313484104158	2.4748374271482168	1.0908469703265355	0.48640431552437136	2.496194261078298	0.8460633265478649	0.46741569780451214	2.3013434437649387	1.325808134993159	0.8639978450542598	2.265555780890817	1.045529146695469	0.8777317115408285	2.124197983179949	0.8527406083601489	0.8879550802697921
360	12.0	2.3642136607773905	0.8216358869058104	0.6532669776997094	2.365704550695781	0.815166389755224	0.5670697041706415	2.195887620059844	0.5224848441236144	0.5837085705804426	2.1535594079531606	0.13830504219499842	0.5745237726335278	1.9622709244881793	0.07535571186236292	0.5680405465802941	2.0132744057731293	0.06701430615592929	0.5084350450373581	2.188962110971795	0.05338032398890872	0.5930963495635235	2.3578603900743946	0.800496214082217	0.7366641450866485	2.428300511589639	0.4314902231138087	0.7248560232980558	2.541332286080818	0.11143466247067525	0.6965166668788076	2.3753950091966844	0.02411149226762538	0.690749161259323	2.414020242329861	0.01512183060027528	0.737125698769311	2.5961681060560244	0.043511362299192155	0.6853702762104893	2.293861895403057	1.4357817893520426	0.6875007244824988	2.227930810642328	1.6920671895193244	0.6647072102002677	2.1578090808731534	1.568782720415848	0.6749751994161028	2.3781405935962954	1.3572222607484794	0.5193055494868957	2.461049671886892	1.0913254766415958	0.4866633020134495	2.487115234573545	0.8462293997578546	0.4678027620330416	2.281422492245734	1.323062379295032	0.8621081559339183	2.2450683294639386	1.046343662210104	0.8786719799678167	2.0956490234168803	0.8573549487689847	0.8834410025063775
361	12.033333333333331	2.347930624669329	0.8202687925170644	0.6517114524214305	2.349847414386784	0.8130798551517311	0.5656197862156913	2.18543972323462	0.5183319171382677	0.583445320332714	2.1213912773898844	0.13615051827888713	0.5763663473061913	1.926566514448305	0.07455468321822122	0.5700339044762933	1.9779547860123614	0.06875241840382762	0.5107441586606255	2.1507174996865754	0.04845306579304254	0.5969150128947434	2.3422952692257817	0.7983208941922117	0.7358414698241063	2.420333758281854	0.4281425521563344	0.7220612946264343	2.5415980601165913	0.11042738272943889	0.6955841653960371	2.375395087567436	0.020494727303647205	0.6868869900685342	2.4171163687893555	0.01240378913575127	0.7310455531812957	2.5972344323926384	0.04056832083371141	0.6828265496105594	2.2776860072816425	1.4356166195358404	0.686683729950547	2.205589766282626	1.6801829753801532	0.6671326019855062	2.1407918343861203	1.5651861429099014	0.6748136787835577	2.3612510888567817	1.355646318196922	0.5182495457127466	2.4461103837850238	1.0912144589004955	0.48639822421909756	2.47575285327606	0.8457913147976253	0.46779138030560613	2.2623647716528854	1.3206620527938377	0.8598408727083591	2.225628797754859	1.046748980022333	0.8785508190163052	2.0710861791904813	0.8612924860897607	0.8791937878747553
362	12.066666666666666	2.3302488272067414	0.8191493584369813	0.6495068052126621	2.332949928677768	0.8111828009691254	0.5639173925481078	2.1745336348465107	0.51380035460979	0.5828226101023521	2.0950339540211846	0.13420816211141676	0.5779513771669125	1.8983950291540297	0.07119074971110739	0.5728656994111908	1.9498499936665363	0.06814059959650796	0.5138437139530326	2.1204359574881333	0.044580112976964625	0.6003047631054867	2.3255253024360547	0.796568843659901	0.7345112161295074	2.411723905175662	0.42561885809292543	0.7194518171126366	2.542564829919464	0.10883641031957965	0.6955592418775249	2.376939981155999	0.015302454070224859	0.6824343957449973	2.4215059285155833	0.009722088234516714	0.7250745720661718	2.5993420390346182	0.03736861106252793	0.680854846691567	2.26162248524637	1.4359864872284764	0.6848622301187822	2.1824229189145314	1.6701094157066796	0.6669733017146955	2.1236348882910963	1.561958760153518	0.6742941475342487	2.343638605711717	1.3540243780529795	0.5168197281546496	2.429606126410069	1.0905980140852916	0.4854510694852978	2.461687651937523	0.8448563230607351	0.4671461640291595	2.2436737289806987	1.3186506023273414	0.8570940084381737	2.2067713051009665	1.0469032949690389	0.8776322798059837	2.0498217053218633	0.8643833022320985	0.8751894358720672
363	12.1	2.3101694943415674	0.8182199499917432	0.646509778364529	2.3142022300225342	0.809723401159388	0.561908751768628	2.1617134247070418	0.5093066174500446	0.5823374195501051	2.0736775066409674	0.1323205621728133	0.5792390862409511	1.8769759359590943	0.0662514993208296	0.5767458620454091	1.9279783069529264	0.06498923728361125	0.5178952107295867	2.0976773456296756	0.04195285814464534	0.6031110850139663	2.3064315381736353	0.7953713427480039	0.7326191302910817	2.4009950124976904	0.42442254018443065	0.7169285075516584	2.54352017649634	0.10790173562126448	0.6965357623706389	2.37938125334795	0.009595967562859666	0.677822145100047	2.4254065882974842	0.007905854540904185	0.7205236863926033	2.601920651698165	0.035685773938990535	0.6797283914037191	2.2441080698241302	1.436030441260922	0.6817936771416147	2.1581730337108134	1.6633099091931751	0.6642430577391151	2.1052531138030526	1.5590866478661658	0.6735707570285777	2.324153626536588	1.3525710891267517	0.5150115067512105	2.4106374943256275	1.0895731630653367	0.4836941236011456	2.443910759693755	0.8435457589481106	0.46547312435929855	2.2241025839193176	1.3169686793563269	0.8536875521073415	2.1875993075470817	1.0469409114418848	0.8760732489114132	2.0305768383918306	0.8663968701013671	0.87135825557065
